<svg width="34" height="34" viewBox="0 0 34 34" fill="none" xmlns="http://www.w3.org/2000/svg">
<path d="M18.2019 3.8981C17.8831 3.5794 17.4508 3.40036 17 3.40036C16.5492 3.40036 16.1169 3.5794 15.7981 3.8981L3.89811 15.7981C3.58844 16.1187 3.41709 16.5481 3.42096 16.9939C3.42484 17.4396 3.60362 17.866 3.91882 18.1812C4.23401 18.4964 4.66039 18.6752 5.10613 18.679C5.55186 18.6829 5.98128 18.5116 6.30191 18.2019L6.80001 17.7038V28.9C6.80001 29.3509 6.97912 29.7833 7.29793 30.1021C7.61674 30.4209 8.04914 30.6 8.50001 30.6H11.9C12.3509 30.6 12.7833 30.4209 13.1021 30.1021C13.4209 29.7833 13.6 29.3509 13.6 28.9V25.5C13.6 25.0491 13.7791 24.6167 14.0979 24.2979C14.4167 23.9791 14.8491 23.8 15.3 23.8H18.7C19.1509 23.8 19.5833 23.9791 19.9021 24.2979C20.2209 24.6167 20.4 25.0491 20.4 25.5V28.9C20.4 29.3509 20.5791 29.7833 20.8979 30.1021C21.2167 30.4209 21.6491 30.6 22.1 30.6H25.5C25.9509 30.6 26.3833 30.4209 26.7021 30.1021C27.0209 29.7833 27.2 29.3509 27.2 28.9V17.7038L27.6981 18.2019C28.0187 18.5116 28.4482 18.6829 28.8939 18.679C29.3396 18.6752 29.766 18.4964 30.0812 18.1812C30.3964 17.866 30.5752 17.4396 30.5791 16.9939C30.5829 16.5481 30.4116 16.1187 30.1019 15.7981L18.2019 3.8981Z" fill="#F3B50A"/>
</svg>
