<svg width="34" height="34" viewBox="0 0 34 34" fill="none" xmlns="http://www.w3.org/2000/svg">
<path d="M5.66663 5.66667V12.75H6.49113M6.49113 12.75C7.43158 10.424 9.11718 8.47579 11.2838 7.21064C13.4503 5.94549 15.9754 5.43492 18.4633 5.75895C20.9512 6.08298 23.2613 7.22329 25.0316 9.00118C26.8018 10.7791 27.9322 13.0941 28.2455 15.5833M6.49113 12.75H12.75M28.3333 28.3333V21.25H27.5102M27.5102 21.25C26.5684 23.5746 24.8823 25.5213 22.716 26.7853C20.5496 28.0493 18.0253 28.5593 15.5381 28.2354C13.0509 27.9115 10.7414 26.772 8.97105 24.9953C7.20069 23.2186 6.06946 20.905 5.75446 18.4167M27.5102 21.25H21.25" stroke="#F3B50A" stroke-width="2" stroke-linecap="round" stroke-linejoin="round"/>
</svg>
